<svg width="39" height="67" viewBox="0 0 39 67" fill="none" xmlns="http://www.w3.org/2000/svg">
<path d="M20.7583 29.4208C12.3404 27.2329 9.63334 24.9708 9.63334 21.4479C9.63334 17.4058 13.3788 14.5875 19.6458 14.5875C26.2467 14.5875 28.6942 17.7396 28.9167 22.375H37.1121C36.8525 15.9967 32.9587 10.1375 25.2083 8.24625V0.125H14.0833V8.135C6.88917 9.6925 1.10418 14.365 1.10418 21.5221C1.10418 30.0883 8.18709 34.3529 18.5333 36.8375C27.8042 39.0625 29.6583 42.3258 29.6583 45.7746C29.6583 48.3333 27.8413 52.4125 19.6458 52.4125C12.0067 52.4125 9.00292 49.0008 8.59501 44.625H0.436676C0.881676 52.7463 6.96334 57.3075 14.0833 58.8279V66.875H25.2083V58.9021C32.4396 57.53 38.1875 53.3396 38.1875 45.7375C38.1875 35.2058 29.1763 31.6087 20.7583 29.4208Z" fill="#0067F4"/>
</svg>
