<svg width="543" height="310" viewBox="0 0 543 310" fill="none" xmlns="http://www.w3.org/2000/svg">
<path d="M219.089 0.0610352C179.038 0.0610352 139.23 17.9802 110.909 48.7521C93.0663 68.1394 79.9322 92.48 72.6484 118.719C55.1411 122.31 38.6065 131.594 25.999 145.293C9.56624 163.148 0.00012207 188.236 0.00012207 213.487C0.00012207 238.738 9.56624 263.835 25.999 281.69C42.4319 299.545 65.5292 309.939 88.7687 309.939H486.339C501.173 309.939 515.918 303.307 526.407 291.911C536.897 280.514 543 264.492 543 248.374C543 232.256 536.897 216.243 526.407 204.846C515.983 193.519 501.353 186.906 486.612 186.825C483.735 157.622 471.559 129.514 452.431 108.73C430.404 84.7968 399.446 70.861 368.296 70.861C360.733 70.861 353.186 71.7036 345.771 73.2899C340.345 64.4918 334.166 56.2465 327.268 48.7521C298.948 17.9802 259.14 0.0610352 219.089 0.0610352V0.0610352Z" fill="#0067F4" fill-opacity="0.55"/>
<g clip-path="url(#clip0_420_69)">
<path d="M405.221 91.5123H283.345V89H228.081V91.5123H105.703C104.62 91.5123 103.548 91.7256 102.548 92.1399C101.548 92.5543 100.639 93.1616 99.8732 93.9273C99.1076 94.6929 98.5004 95.6018 98.0861 96.6022C97.6718 97.6025 97.4586 98.6747 97.4586 99.7575V266.666C97.4586 268.853 98.3271 270.95 99.8732 272.496C101.419 274.043 103.516 274.911 105.703 274.911H405.221C406.303 274.911 407.375 274.698 408.376 274.284C409.376 273.869 410.285 273.262 411.05 272.496C411.816 271.731 412.423 270.822 412.837 269.821C413.252 268.821 413.465 267.749 413.465 266.666V99.7575C413.465 98.6747 413.252 97.6025 412.837 96.6022C412.423 95.6018 411.816 94.6929 411.05 93.9273C410.285 93.1616 409.376 92.5543 408.376 92.1399C407.375 91.7256 406.303 91.5123 405.221 91.5123V91.5123Z" fill="#3F3D56"/>
<path d="M402.412 106.084H108.511V271.897H402.412V106.084Z" fill="#ADDCB5"/>
<path d="M255.211 101.562C256.875 101.562 258.225 100.212 258.225 98.5468C258.225 96.8818 256.875 95.532 255.211 95.532C253.546 95.532 252.196 96.8818 252.196 98.5468C252.196 100.212 253.546 101.562 255.211 101.562Z" fill="#0067F4"/>
<path d="M385.54 127.187H371.608V113.253H385.54V127.187ZM372.214 126.581H384.934V113.859H372.214V126.581Z" fill="#3F3D56"/>
<path d="M421.717 268.882H393.034V266.815C393.034 266.761 393.024 266.708 393.003 266.658C392.982 266.608 392.952 266.563 392.914 266.525C392.876 266.487 392.831 266.457 392.781 266.436C392.732 266.416 392.678 266.405 392.624 266.405H382.79C382.737 266.405 382.683 266.416 382.634 266.436C382.584 266.457 382.539 266.487 382.501 266.525C382.463 266.563 382.432 266.608 382.412 266.658C382.391 266.708 382.381 266.761 382.381 266.815V268.882H376.234V266.815C376.234 266.761 376.224 266.708 376.203 266.658C376.182 266.608 376.152 266.563 376.114 266.525C376.076 266.487 376.031 266.457 375.981 266.436C375.932 266.416 375.878 266.405 375.825 266.405H365.99C365.937 266.405 365.883 266.416 365.834 266.436C365.784 266.457 365.739 266.487 365.701 266.525C365.663 266.563 365.632 266.608 365.612 266.658C365.591 266.708 365.581 266.761 365.581 266.815V268.882H359.434V266.815C359.434 266.761 359.424 266.708 359.403 266.658C359.383 266.608 359.352 266.563 359.314 266.525C359.276 266.487 359.231 266.457 359.181 266.436C359.132 266.416 359.078 266.405 359.025 266.405H349.19C349.137 266.405 349.083 266.416 349.034 266.436C348.984 266.457 348.939 266.487 348.901 266.525C348.863 266.563 348.832 266.608 348.812 266.658C348.791 266.708 348.781 266.761 348.781 266.815V268.882H342.634V266.815C342.634 266.761 342.624 266.708 342.603 266.658C342.583 266.608 342.552 266.563 342.514 266.525C342.476 266.487 342.431 266.457 342.381 266.436C342.332 266.416 342.278 266.405 342.225 266.405H332.391C332.337 266.405 332.283 266.416 332.234 266.436C332.184 266.457 332.139 266.487 332.101 266.525C332.063 266.563 332.033 266.608 332.012 266.658C331.991 266.708 331.981 266.761 331.981 266.815V268.882H325.834V266.815C325.834 266.761 325.824 266.708 325.803 266.658C325.783 266.608 325.752 266.563 325.714 266.525C325.676 266.487 325.631 266.457 325.581 266.436C325.532 266.416 325.478 266.405 325.425 266.405H315.591C315.537 266.405 315.483 266.416 315.434 266.436C315.384 266.457 315.339 266.487 315.301 266.525C315.263 266.563 315.233 266.608 315.212 266.658C315.191 266.708 315.181 266.761 315.181 266.815V268.882H309.034V266.815C309.034 266.761 309.024 266.708 309.003 266.658C308.983 266.608 308.953 266.563 308.914 266.525C308.876 266.487 308.831 266.457 308.782 266.436C308.732 266.416 308.679 266.405 308.625 266.405H298.791C298.737 266.405 298.684 266.416 298.634 266.436C298.584 266.457 298.539 266.487 298.501 266.525C298.463 266.563 298.433 266.608 298.412 266.658C298.391 266.708 298.381 266.761 298.381 266.815V268.882H292.235V266.815C292.235 266.761 292.224 266.708 292.203 266.658C292.183 266.608 292.153 266.563 292.115 266.525C292.076 266.487 292.031 266.457 291.982 266.436C291.932 266.416 291.879 266.405 291.825 266.405H214.791C214.737 266.405 214.684 266.416 214.634 266.436C214.584 266.457 214.539 266.487 214.501 266.525C214.463 266.563 214.433 266.608 214.412 266.658C214.392 266.708 214.381 266.761 214.381 266.815V268.882H208.235V266.815C208.235 266.761 208.224 266.708 208.204 266.658C208.183 266.608 208.153 266.563 208.115 266.525C208.077 266.487 208.032 266.457 207.982 266.436C207.932 266.416 207.879 266.405 207.825 266.405H197.991C197.937 266.405 197.884 266.416 197.834 266.436C197.784 266.457 197.739 266.487 197.701 266.525C197.663 266.563 197.633 266.608 197.612 266.658C197.592 266.708 197.581 266.761 197.581 266.815V268.882H191.435V266.815C191.435 266.761 191.424 266.708 191.404 266.658C191.383 266.608 191.353 266.563 191.315 266.525C191.277 266.487 191.232 266.457 191.182 266.436C191.132 266.416 191.079 266.405 191.025 266.405H181.191C181.137 266.405 181.084 266.416 181.034 266.436C180.985 266.457 180.939 266.487 180.901 266.525C180.863 266.563 180.833 266.608 180.812 266.658C180.792 266.708 180.781 266.761 180.781 266.815V268.882H174.635V266.815C174.635 266.761 174.624 266.708 174.604 266.658C174.583 266.608 174.553 266.563 174.515 266.525C174.477 266.487 174.432 266.457 174.382 266.436C174.332 266.416 174.279 266.405 174.225 266.405H164.391C164.337 266.405 164.284 266.416 164.234 266.436C164.185 266.457 164.139 266.487 164.101 266.525C164.063 266.563 164.033 266.608 164.013 266.658C163.992 266.708 163.981 266.761 163.981 266.815V268.882H157.835V266.815C157.835 266.761 157.824 266.708 157.804 266.658C157.783 266.608 157.753 266.563 157.715 266.525C157.677 266.487 157.632 266.457 157.582 266.436C157.532 266.416 157.479 266.405 157.425 266.405H147.591C147.537 266.405 147.484 266.416 147.434 266.436C147.385 266.457 147.339 266.487 147.301 266.525C147.263 266.563 147.233 266.608 147.213 266.658C147.192 266.708 147.181 266.761 147.181 266.815V268.882H141.035V266.815C141.035 266.761 141.024 266.708 141.004 266.658C140.983 266.608 140.953 266.563 140.915 266.525C140.877 266.487 140.832 266.457 140.782 266.436C140.732 266.416 140.679 266.405 140.625 266.405H130.791C130.737 266.405 130.684 266.416 130.634 266.436C130.585 266.457 130.54 266.487 130.501 266.525C130.463 266.563 130.433 266.608 130.413 266.658C130.392 266.708 130.381 266.761 130.381 266.815V268.882H124.235V266.815C124.235 266.761 124.225 266.708 124.204 266.658C124.183 266.608 124.153 266.563 124.115 266.525C124.077 266.487 124.032 266.457 123.982 266.436C123.932 266.416 123.879 266.405 123.825 266.405H113.991C113.937 266.405 113.884 266.416 113.834 266.436C113.785 266.457 113.74 266.487 113.702 266.525C113.663 266.563 113.633 266.608 113.613 266.658C113.592 266.708 113.582 266.761 113.582 266.815V268.882H94.7328C92.1246 268.882 89.6233 269.918 87.779 271.763C85.9348 273.607 84.8987 276.109 84.8987 278.717V283.165C84.8987 285.773 85.9348 288.275 87.779 290.119C89.6233 291.964 92.1246 293 94.7328 293H421.717C424.325 293 426.827 291.964 428.671 290.119C430.515 288.275 431.551 285.773 431.551 283.165V278.717C431.551 276.109 430.515 273.607 428.671 271.763C426.827 269.918 424.325 268.882 421.717 268.882V268.882Z" fill="#3F3D56"/>
<path d="M472 282.91H44.4498V284.215H472V282.91Z" fill="#3F3D56"/>
<path d="M384.244 198.478H289.618V144.599H384.244V198.478ZM290.554 197.541H383.307V145.536H290.554V197.541Z" fill="#3F3D56"/>
<path d="M210.918 209.254H126.597V156.78H210.918V209.254ZM127.534 208.317H209.981V157.717H127.534V208.317Z" fill="#3F3D56"/>
<path d="M165.991 189.107L165.91 188.06C165.669 185.884 166.394 183.507 168.408 181.09C170.221 178.954 171.228 177.383 171.228 175.57C171.228 173.515 169.939 172.145 167.401 172.105C165.949 172.099 164.53 172.534 163.332 173.354L162.365 170.815C163.695 169.848 165.991 169.203 168.126 169.203C172.759 169.203 174.854 172.064 174.854 175.126C174.854 177.866 173.323 179.841 171.389 182.137C169.617 184.232 168.972 186.005 169.093 188.06L169.133 189.107L165.991 189.107ZM165.105 194.748C165.083 194.42 165.13 194.09 165.242 193.78C165.354 193.471 165.529 193.187 165.756 192.949C165.984 192.71 166.258 192.521 166.562 192.394C166.866 192.267 167.192 192.204 167.522 192.21C168.932 192.21 169.899 193.257 169.899 194.748C169.912 195.071 169.86 195.394 169.745 195.696C169.631 195.999 169.457 196.275 169.233 196.508C169.009 196.742 168.74 196.928 168.443 197.054C168.145 197.181 167.825 197.247 167.502 197.247C167.178 197.247 166.858 197.181 166.561 197.054C166.263 196.928 165.995 196.742 165.771 196.508C165.547 196.275 165.372 195.999 165.258 195.696C165.144 195.394 165.091 195.071 165.105 194.748V194.748Z" fill="#D0CDE1"/>
<path d="M334.164 177.395L334.084 176.347C333.842 174.171 334.567 171.794 336.581 169.377C338.394 167.241 339.401 165.67 339.401 163.857C339.401 161.802 338.112 160.432 335.574 160.392C334.123 160.386 332.704 160.822 331.505 161.641L330.538 159.102C331.868 158.135 334.164 157.491 336.299 157.491C340.932 157.491 343.027 160.352 343.027 163.413C343.027 166.154 341.496 168.128 339.562 170.424C337.79 172.519 337.145 174.292 337.266 176.347L337.306 177.395L334.164 177.395ZM333.278 183.036C333.256 182.707 333.303 182.377 333.415 182.067C333.527 181.758 333.703 181.475 333.93 181.236C334.157 180.998 334.431 180.809 334.735 180.681C335.039 180.554 335.366 180.492 335.695 180.497C337.105 180.497 338.072 181.544 338.072 183.036C338.085 183.359 338.033 183.681 337.919 183.984C337.804 184.286 337.63 184.562 337.406 184.796C337.182 185.029 336.913 185.215 336.616 185.342C336.318 185.468 335.998 185.534 335.675 185.534C335.352 185.534 335.032 185.468 334.734 185.342C334.437 185.215 334.168 185.029 333.944 184.796C333.72 184.562 333.546 184.286 333.431 183.984C333.317 183.681 333.265 183.359 333.278 183.036V183.036Z" fill="#D0CDE1"/>
<path d="M257.117 251.64C279.443 251.64 297.541 233.539 297.541 211.211C297.541 188.883 279.443 170.782 257.117 170.782C234.792 170.782 216.694 188.883 216.694 211.211C216.694 233.539 234.792 251.64 257.117 251.64Z" fill="#2F2E41"/>
<path d="M241.505 266.575L229.42 264.387L233.34 239.151L245.424 241.339L241.505 266.575Z" fill="#2F2E41"/>
<path d="M269.592 245.714L257.508 243.527L253.589 265.18L265.673 267.368L269.592 245.714Z" fill="#2F2E41"/>
<path d="M273.75 268.548C274.169 266.47 270.018 263.879 264.478 262.76C258.937 261.642 254.106 262.419 253.687 264.497C253.267 266.575 257.419 269.166 262.959 270.285C268.499 271.403 273.33 270.626 273.75 268.548Z" fill="#2F2E41"/>
<path d="M248.58 267.895C248.859 265.794 244.542 263.488 238.939 262.746C233.336 262.004 228.568 263.105 228.29 265.207C228.012 267.308 232.328 269.614 237.931 270.356C243.534 271.098 248.302 269.997 248.58 267.895Z" fill="#2F2E41"/>
<path d="M259.947 215.139C267.577 215.139 273.763 208.953 273.763 201.322C273.763 193.691 267.577 187.504 259.947 187.504C252.317 187.504 246.132 193.691 246.132 201.322C246.132 208.953 252.317 215.139 259.947 215.139Z" fill="white"/>
<path d="M265.625 200.975C268.169 200.975 270.231 198.913 270.231 196.369C270.231 193.825 268.169 191.763 265.625 191.763C263.082 191.763 261.02 193.825 261.02 196.369C261.02 198.913 263.082 200.975 265.625 200.975Z" fill="#3F3D56"/>
<path d="M225.229 167.229C224.621 152.261 237.519 139.584 254.037 138.912C270.556 138.241 284.439 149.831 285.047 164.798C285.655 179.766 274.173 183.167 257.654 183.838C241.136 184.509 225.837 182.196 225.229 167.229Z" fill="white"/>
<path d="M295.86 210.031C306.741 207.537 314.927 202.745 314.144 199.329C313.361 195.913 303.906 195.166 293.025 197.66C282.145 200.154 273.959 204.946 274.742 208.362C275.525 211.778 284.98 212.525 295.86 210.031Z" fill="#2F2E41"/>
<path d="M216.51 223.229C227.391 220.734 235.577 215.943 234.794 212.527C234.011 209.11 224.556 208.363 213.675 210.857C202.795 213.352 194.609 218.143 195.392 221.559C196.175 224.976 205.63 225.723 216.51 223.229Z" fill="#2F2E41"/>
<path d="M246.015 227.144C245.799 228.334 245.821 229.555 246.077 230.737C246.333 231.919 246.82 233.04 247.509 234.034C248.199 235.028 249.077 235.876 250.094 236.531C251.111 237.185 252.247 237.633 253.437 237.849C254.628 238.064 255.848 238.043 257.031 237.787C258.213 237.53 259.333 237.044 260.326 236.354C261.32 235.665 262.169 234.787 262.823 233.769C263.478 232.752 263.926 231.616 264.141 230.425C265.047 225.419 261.177 223.648 256.172 222.742C251.166 221.835 246.921 222.137 246.015 227.144Z" fill="white"/>
<path d="M169.859 95.1479H103.392V158.382H169.859V95.1479Z" fill="#D0CDE1"/>
<path d="M162.305 102.702H110.945V141.983H162.305V102.702Z" fill="white"/>
<path d="M138.831 146.617H110.894V148.088H138.831V146.617Z" fill="#F2F2F2"/>
<path d="M138.831 151.029H110.894V152.5H138.831V151.029Z" fill="#F2F2F2"/>
<path d="M120.084 128.235C123.332 128.235 125.965 125.602 125.965 122.353C125.965 119.105 123.332 116.471 120.084 116.471C116.835 116.471 114.202 119.105 114.202 122.353C114.202 125.602 116.835 128.235 120.084 128.235Z" fill="#3F3D56"/>
<path d="M136.625 128.235C139.873 128.235 142.507 125.602 142.507 122.353C142.507 119.105 139.873 116.471 136.625 116.471C133.377 116.471 130.744 119.105 130.744 122.353C130.744 125.602 133.377 128.235 136.625 128.235Z" fill="#8FED9F"/>
<path d="M153.167 128.235C156.415 128.235 159.048 125.602 159.048 122.353C159.048 119.105 156.415 116.471 153.167 116.471C149.918 116.471 147.285 119.105 147.285 122.353C147.285 125.602 149.918 128.235 153.167 128.235Z" fill="#E6E6E6"/>
<path d="M136.625 101.765C138.249 101.765 139.566 100.449 139.566 98.8244C139.566 97.2 138.249 95.8832 136.625 95.8832C135.001 95.8832 133.684 97.2 133.684 98.8244C133.684 100.449 135.001 101.765 136.625 101.765Z" fill="#3F3D56"/>
<path d="M201.473 217.588H135.006V280.821H201.473V217.588Z" fill="#D0CDE1"/>
<path d="M193.92 225.142H142.559V264.423H193.92V225.142Z" fill="white"/>
<path d="M171.867 231.597H153.861V249.605H171.867V231.597Z" fill="#8FED9F"/>
<path d="M160.754 236.1V257.967H182.618V236.1H160.754ZM181.67 257.019H161.702V237.049H181.67V257.019Z" fill="#3F3D56"/>
<path d="M170.445 268.322H142.508V269.792H170.445V268.322Z" fill="#F2F2F2"/>
<path d="M168.24 224.205C169.864 224.205 171.18 222.888 171.18 221.264C171.18 219.64 169.864 218.323 168.24 218.323C166.615 218.323 165.299 219.64 165.299 221.264C165.299 222.888 166.615 224.205 168.24 224.205Z" fill="#3F3D56"/>
<path d="M374.525 198.657H308.058V261.891H374.525V198.657Z" fill="#D0CDE1"/>
<path d="M366.972 206.211H315.611V245.492H366.972V206.211Z" fill="white"/>
<path d="M346.816 236.962H335.767V240.237H346.816V236.962Z" fill="#3F3D56"/>
<path d="M360.174 211.466H322.409V212.869H360.174V211.466Z" fill="#3F3D56"/>
<path d="M360.174 215.91H322.409V217.314H360.174V215.91Z" fill="#3F3D56"/>
<path d="M360.174 220.354H322.409V221.758H360.174V220.354Z" fill="#3F3D56"/>
<path d="M360.174 224.799H322.409V226.202H360.174V224.799Z" fill="#3F3D56"/>
<path d="M360.174 229.243H322.409V230.647H360.174V229.243Z" fill="#3F3D56"/>
<path d="M343.497 249.391H315.56V250.861H343.497V249.391Z" fill="#F2F2F2"/>
<path d="M354.525 253.067H315.56V254.538H354.525V253.067Z" fill="#F2F2F2"/>
<path d="M341.291 205.274C342.915 205.274 344.232 203.957 344.232 202.333C344.232 200.709 342.915 199.392 341.291 199.392C339.667 199.392 338.351 200.709 338.351 202.333C338.351 203.957 339.667 205.274 341.291 205.274Z" fill="#3F3D56"/>
</g>
<defs>
<clipPath id="clip0_420_69">
<rect width="441" height="204" fill="white" transform="translate(31 89)"/>
</clipPath>
</defs>
</svg>
